<?xml version="1.0" encoding="UTF-8"?>
<svg version="1.1" xmlns="http://www.w3.org/2000/svg" width="1024" height="1024">
<path d="M0 0 C337.92 0 675.84 0 1024 0 C1024 337.92 1024 675.84 1024 1024 C686.08 1024 348.16 1024 0 1024 C0 686.08 0 348.16 0 0 Z " fill="#7375DF" transform="translate(0,0)"/>
<path d="M0 0 C4.65096809 3.7623685 8.80741381 8.11571614 12.97558594 12.39770508 C15.84776731 15.34156811 18.75009913 18.15776588 21.8828125 20.82421875 C27.95561194 26.05992102 33.49321021 31.86277937 39.125 37.5625 C41.36952621 39.83359613 43.61734251 42.10136175 45.8671875 44.3671875 C46.37861298 44.88691132 46.89003845 45.40663513 47.41696167 45.94210815 C50.07300122 48.65765109 50.07300122 48.65765109 53.25 50.6875 C53.25 51.3475 53.25 52.0075 53.25 52.6875 C53.83789307 52.94942139 54.42578613 53.21134277 55.03149414 53.48120117 C57.36909667 54.75225808 58.88652604 56.09487956 60.74609375 57.98828125 C61.38740234 58.63603516 62.02871094 59.28378906 62.68945312 59.95117188 C63.67848633 60.9653418 63.67848633 60.9653418 64.6875 62 C65.34298828 62.66451172 65.99847656 63.32902344 66.67382812 64.01367188 C67.90785806 65.26503022 69.13980921 66.51844482 70.36889648 67.7746582 C72.64870347 70.09293046 74.94993129 72.38934636 77.25 74.6875 C78.14678467 73.7840535 79.04356934 72.88060699 79.9675293 71.94978333 C88.43361812 63.42279146 96.90768409 54.903799 105.38955688 46.3925066 C109.74956452 42.01686546 114.10674653 37.63848704 118.45751953 33.25366211 C122.65896382 29.01954246 126.86776503 24.79286454 131.08169556 20.57117271 C132.68541823 18.96192126 134.28650494 17.3500383 135.88485718 15.73545265 C138.12978678 13.46864088 140.38403884 11.21149885 142.640625 8.95629883 C143.29446671 8.2916713 143.94830841 7.62704376 144.6219635 6.942276 C152.42509694 -0.80938832 159.99345678 -5.14541416 171.0625 -5.6875 C187.47317982 -5.21000702 197.14081758 7.42138509 207.875 18.3125 C214.71635392 25.31944773 214.71635392 25.31944773 221.9609375 31.8984375 C229.49675418 38.3541775 236.29283911 45.67997608 243.26855469 52.7265625 C252.47047334 62.07148261 252.47047334 62.07148261 262.19726562 70.85742188 C267.36398259 75.46371473 272.13692055 80.515235 277 85.4375 C279.22102858 87.68521905 281.44542571 89.92952673 283.671875 92.171875 C284.17297791 92.68127625 284.67408081 93.19067749 285.19036865 93.71551514 C287.24019508 95.77961454 289.2485343 97.68642678 291.59863281 99.40722656 C292.41605957 100.04096191 292.41605957 100.04096191 293.25 100.6875 C293.25 101.3475 293.25 102.0075 293.25 102.6875 C293.83698669 102.94884232 294.42397339 103.21018463 295.02874756 103.47944641 C297.38180327 104.75918272 298.91208484 106.11461638 300.79003906 108.01635742 C301.46464172 108.69433884 302.13924438 109.37232025 302.83428955 110.07084656 C303.55413025 110.80414688 304.27397095 111.5374472 305.015625 112.29296875 C306.14396759 113.42911369 306.14396759 113.42911369 307.29510498 114.58821106 C309.70153225 117.01244306 312.10119238 119.44322983 314.5 121.875 C316.88533204 124.28809092 319.27215052 126.69966121 321.66204834 129.10823059 C323.14752375 130.60580564 324.63032038 132.10604445 326.10992432 133.60942078 C329.36286727 136.89327808 332.64255208 140.07651868 336.14941406 143.08911133 C341.06400508 147.32470589 345.59247835 151.92415606 350.15625 156.53125 C351.56862932 157.9494165 352.98101161 159.36758007 354.39356232 160.78557587 C357.34312024 163.74816445 360.28806312 166.71534021 363.23382568 169.68170166 C365.66877106 172.13331031 368.10474816 174.58387331 370.54333496 177.03186035 C372.36220613 178.85818429 374.17882652 180.68675361 375.99279785 182.51794434 C380.38420641 186.92673622 384.81832442 191.16898703 389.61022949 195.14221191 C393.88629855 199.17189688 395.91781933 204.32757416 396.48828125 210.09765625 C396.51277344 210.97292969 396.53726563 211.84820312 396.5625 212.75 C396.59988281 213.60722656 396.63726563 214.46445312 396.67578125 215.34765625 C395.36864617 225.6008718 390.82398049 232.13677814 383.58465576 239.22154236 C382.25879971 240.56060327 382.25879971 240.56060327 380.90615869 241.92671591 C378.4719889 244.38413001 376.01672056 246.81942818 373.55718112 249.25141442 C370.90090277 251.88557567 368.26498598 254.53998325 365.62638855 257.1918335 C360.46244732 262.37529174 355.28005799 267.53991381 350.09102169 272.69823682 C344.04466156 278.71011709 338.01652186 284.74013144 331.98892406 290.77081294 C321.2321721 301.53175104 310.45845156 312.27553889 299.67529297 323.01000977 C289.21889533 333.41921483 278.7755679 343.84130863 268.34619141 354.27758789 C255.16361015 367.46883744 241.96963588 380.64858319 228.76613425 393.81889267 C224.56127689 398.01385035 220.36050689 402.21287463 216.16109467 406.41328239 C211.04249441 411.53264099 205.91648524 416.64444795 200.78111354 421.74698436 C198.16251101 424.34914086 195.54711829 426.95431282 192.94027519 429.56825447 C190.11204982 432.40392731 187.26855455 435.2237788 184.42327881 438.04234314 C183.60497424 438.86752424 182.78666967 439.69270533 181.94356799 440.54289192 C177.31825513 445.09437201 173.22728496 448.13593605 167.25 450.6875 C166.321875 451.1 165.39375 451.5125 164.4375 451.9375 C155.61815462 454.01264009 147.23157901 453.01374717 139.25 448.6875 C136.61056452 446.65897244 134.21408102 444.52286449 131.83203125 442.19921875 C129.78618447 440.20908338 127.71835303 438.35151326 125.5546875 436.49609375 C120.6618348 432.24470131 116.12045162 427.66721829 111.5625 423.0625 C110.73427734 422.22976563 109.90605469 421.39703125 109.05273438 420.5390625 C105.85559212 417.32400191 102.66242145 414.10514933 99.4765625 410.87890625 C97.15138407 408.59044116 94.7539177 406.4137209 92.3125 404.25 C89.36671274 401.62860003 86.5248139 398.98649117 83.8125 396.125 C81.47716073 393.34289312 81.47716073 393.34289312 78.25 393.6875 C76.80623805 394.98744789 76.80623805 394.98744789 75.41455078 396.8293457 C72.12210001 400.75343951 68.64581597 404.40547136 65.02685547 408.02416992 C64.44499544 408.60657094 63.86313541 409.18897196 63.26364326 409.78902149 C61.38344031 411.66730119 59.50035602 413.54266275 57.6171875 415.41796875 C56.29373561 416.73955138 54.97050743 418.06135806 53.64749146 419.38337708 C50.18289923 422.84417422 46.71531632 426.30195927 43.24707031 429.75909424 C39.72149397 433.27442889 36.19875287 436.79260219 32.67578125 440.31054688 C26.98643165 445.99113768 21.2953914 451.67002782 15.60202026 457.34658813 C15.10041382 457.84674942 14.59880737 458.34691071 14.08200073 458.86222839 C13.606562 459.33605139 13.13112328 459.80987438 12.64127731 460.29805565 C11.26209074 461.67542519 9.88762876 463.05752023 8.51321411 464.43965149 C6.40128478 466.53724234 4.25997091 468.45282494 1.9375 470.3125 C1.24011719 470.88226562 0.54273438 471.45203125 -0.17578125 472.0390625 C-8.95255957 477.65939702 -18.63000843 477.88720675 -28.75 476.6875 C-35.83007444 474.82526949 -40.48160711 470.45749228 -45.3515625 465.1640625 C-47.23416319 463.22013931 -49.09260353 461.51668853 -51.1484375 459.7734375 C-58.36251381 453.53600516 -64.92093042 446.56944261 -71.62304688 439.79394531 C-73.45489754 437.94383381 -75.28988307 436.09687088 -77.125 434.25 C-77.6710791 433.69562256 -78.2171582 433.14124512 -78.77978516 432.57006836 C-81.61873468 429.71356274 -84.51809832 426.99125981 -87.57226562 424.36523438 C-92.35086543 420.22998447 -96.77441449 415.76999652 -101.21875 411.28125 C-102.09849487 410.39771851 -102.97823975 409.51418701 -103.88464355 408.60388184 C-107.14656945 405.3277768 -110.40392564 402.0471502 -113.66094971 398.76617432 C-116.8648726 395.53919462 -120.07269116 392.3161192 -123.28125 389.09375 C-124.11168823 388.25501343 -124.94212646 387.41627686 -125.79772949 386.55212402 C-130.0269817 382.30528657 -134.33304382 378.24268663 -138.8770752 374.33557129 C-141.91793117 371.65978451 -144.75158831 368.78993841 -147.59375 365.90625 C-148.20714233 365.28907104 -148.82053467 364.67189209 -149.45251465 364.03601074 C-152.03749518 361.43491211 -154.61637822 358.82779986 -157.19580078 356.22119141 C-159.09715567 354.30158658 -161.00163664 352.38512101 -162.90625 350.46875 C-163.47420288 349.89249878 -164.04215576 349.31624756 -164.62731934 348.72253418 C-167.4995074 345.83322614 -170.42473719 343.07254663 -173.51757812 340.41992188 C-178.18855309 336.37927545 -182.52411326 332.02714222 -186.87033081 327.64233398 C-188.34931909 326.15035757 -189.83160502 324.66172447 -191.31469727 323.17382812 C-194.99447387 319.48081846 -198.66872627 315.78232888 -202.34313965 312.08398438 C-205.46045629 308.94679696 -208.57991088 305.81176398 -211.70211792 302.67944336 C-213.14865069 301.22652092 -214.59209167 299.77057719 -216.03540039 298.31445312 C-220.53444244 293.79879749 -225.08171589 289.43138497 -229.92004395 285.28146362 C-232.89692656 282.6884819 -235.70635652 279.93227675 -238.515625 277.16015625 C-239.11630798 276.56754501 -239.71699097 275.97493378 -240.33587646 275.36436462 C-241.59091424 274.12302273 -242.84450558 272.88021682 -244.09667969 271.63598633 C-245.36828614 270.37596069 -246.64436261 269.1204306 -247.92480469 267.86938477 C-249.79839984 266.03863243 -251.65822628 264.19482245 -253.515625 262.34765625 C-254.36571136 261.52383202 -254.36571136 261.52383202 -255.23297119 260.68336487 C-261.09647428 254.78776553 -264.81568481 247.93242011 -265 239.5 C-264.77178261 225.57873922 -255.37444339 217.01016976 -246.06030273 207.77075195 C-245.09174311 206.80275768 -244.12362606 205.83432041 -243.15591431 204.86547852 C-240.54683808 202.25583224 -237.93167299 199.6523682 -235.31531405 197.05002618 C-232.56874258 194.31603753 -229.82791044 191.57630692 -227.08644104 188.83720398 C-221.89754011 183.65450225 -216.70356818 178.47691402 -211.50771815 173.30118006 C-205.60960276 167.42540942 -199.71715149 161.54397267 -193.8251847 155.66203749 C-183.75055409 145.60475157 -173.67170089 135.55171436 -163.58811951 125.50340271 C-161.30848601 123.23169611 -159.02917624 120.95966534 -156.75 118.6875 C-156.22024126 118.15983725 -155.69048252 117.63217449 -155.14467049 117.08852196 C-153.0908304 115.04002449 -151.06688436 112.97261154 -149.0625 110.875 C-146.75 108.6875 -146.75 108.6875 -144.75 108.6875 C-144.523125 108.11 -144.29625 107.5325 -144.0625 106.9375 C-142.40273655 104.09219122 -140.32933333 102.75096666 -137.75 100.6875 C-136.72586445 99.54780663 -135.72426949 98.38769574 -134.73828125 97.21484375 C-130.12832283 91.88195591 -125.12987103 86.95930847 -120.125 82 C-119.196875 81.07638672 -118.26875 80.15277344 -117.3125 79.20117188 C-115.58759098 77.48491212 -113.86164833 75.76969003 -112.13427734 74.0559082 C-110.43858019 72.37149717 -108.74875765 70.68116319 -107.06298828 68.98681641 C-105.18469499 67.11962555 -103.30053346 65.41847652 -101.25 63.75 C-97.97681225 60.98691943 -95.44117688 58.01606088 -92.75 54.6875 C-90.04784127 51.84312239 -87.23811584 49.22287102 -84.25 46.6875 C-79.76245555 42.87549987 -75.79920925 38.75271433 -71.9375 34.3125 C-68.76254271 30.70269865 -65.41760128 27.59453858 -61.75 24.5 C-59.56814812 22.52269673 -57.67570325 20.41409439 -55.75 18.1875 C-52.64267408 14.6007234 -49.38432736 11.49706739 -45.75390625 8.44921875 C-43.59751026 6.55343982 -41.65943439 4.52341904 -39.6875 2.4375 C-29.50552642 -7.88422616 -11.74390695 -8.12078672 0 0 Z " fill="#CFC5FC" transform="translate(459.75,252.3125)"/>
<path d="M0 0 C2.69933834 2.26989815 4.56871689 4.55381842 6.75 7.3125 C7.86055205 8.30458139 8.99090106 9.27464994 10.1328125 10.23046875 C16.53887785 15.76863892 22.38692957 21.89287124 28.33203125 27.91503906 C29.88585998 29.48718215 31.44286677 31.05613084 33 32.625 C33.91265625 33.54925781 34.8253125 34.47351563 35.765625 35.42578125 C37.95708332 37.59360491 40.23696386 39.62304966 42.57226562 41.63476562 C47.0369664 45.50505201 51.19054829 49.6441589 55.34375 53.84375 C56.13471069 54.63849731 56.92567139 55.43324463 57.74060059 56.2520752 C61.09018573 59.61785548 64.4337327 62.98961048 67.77783203 66.36083984 C70.23520939 68.83640227 72.69566058 71.30888083 75.15625 73.78125 C75.89919312 74.53249146 76.64213623 75.28373291 77.40759277 76.05773926 C80.73653574 79.40207575 84.08804269 82.65489629 87.66796875 85.73046875 C92.57638274 89.96034455 97.09840677 94.55514076 101.65625 99.15625 C103.06862932 100.5744165 104.48101161 101.99258007 105.89356232 103.41057587 C108.84312024 106.37316445 111.78806312 109.34034021 114.73382568 112.30670166 C117.16877106 114.75831031 119.60474816 117.20887331 122.04333496 119.65686035 C123.86220613 121.48318429 125.67882652 123.31175361 127.49279785 125.14294434 C131.82280563 129.49009238 136.21855201 133.6643096 140.87234497 137.66192627 C144.02364174 140.43210907 146.96495727 143.40436648 149.91796875 146.3828125 C150.56067215 147.02693085 151.20337555 147.67104919 151.86555481 148.33468628 C153.89192915 150.36659005 155.91478049 152.40195857 157.9375 154.4375 C159.30380162 155.80882777 160.6703363 157.17992337 162.03710938 158.55078125 C164.54465569 161.06644013 167.05086053 163.58341824 169.55541992 166.10205078 C170.100784 166.65005844 170.64614807 167.1980661 171.20803833 167.76268005 C172.61931797 169.18115198 174.0295607 170.60065537 175.43969727 172.02026367 C177.42145963 173.9865288 179.42917974 175.90422319 181.484375 177.79296875 C182.14050781 178.39947266 182.79664063 179.00597656 183.47265625 179.63085938 C184.83850547 180.89012498 186.20572217 182.14790877 187.57421875 183.40429688 C188.22519531 184.00693359 188.87617187 184.60957031 189.546875 185.23046875 C190.43391113 186.04680786 190.43391113 186.04680786 191.33886719 186.87963867 C193.92963209 189.51029598 194.05018208 191.85076834 194.25 195.4375 C194.3221875 196.34757813 194.394375 197.25765625 194.46875 198.1953125 C192.80915926 205.39288537 184.97323344 211.23603346 179.84008789 216.35180664 C179.18867325 217.0049736 178.53725861 217.65814056 177.86610413 218.33110046 C175.73744251 220.46412075 173.6051943 222.59351207 171.47265625 224.72265625 C169.97710329 226.21888397 168.48169871 227.71526001 166.98643494 229.21177673 C163.86212601 232.33755453 160.73602966 235.46153055 157.60864258 238.58422852 C153.61653311 242.57064122 149.62893053 246.56152715 145.642663 250.55378056 C142.55855071 253.64152037 139.47204331 256.72685722 136.38482475 259.81149101 C134.91420708 261.28144548 133.44432113 262.75213241 131.97520638 264.22358894 C129.91566174 266.28569624 127.85289875 268.34453199 125.78930664 270.40258789 C125.19321594 271.00070282 124.59712524 271.59881775 123.98297119 272.21505737 C120.27755511 275.90223991 116.44455301 279.3927827 112.48431492 282.80502224 C110.39804641 284.61842034 108.41705489 286.51612301 106.4609375 288.46875 C105.38972656 289.53802734 105.38972656 289.53802734 104.296875 290.62890625 C103.58015625 291.34949219 102.8634375 292.07007813 102.125 292.8125 C101.40054687 293.53308594 100.67609375 294.25367188 99.9296875 294.99609375 C96.72796802 298.20361344 93.61452182 301.41183872 90.7265625 304.90625 C88.66087395 307.37554218 86.48861307 309.47800813 84.03459167 311.55987549 C79.91397782 315.12570832 76.05178505 318.88896363 72.2199707 322.76074219 C71.5148233 323.46895615 70.8096759 324.1771701 70.0831604 324.90684509 C68.56690034 326.43020722 67.0517722 327.9546967 65.53768349 329.48021698 C63.13988799 331.89553049 60.73845566 334.30717343 58.33598328 336.71783447 C51.51094618 343.56722244 44.69165588 350.42231117 37.87670898 357.28173828 C33.69610665 361.4891188 29.51064936 365.69161866 25.32216454 369.89115143 C23.73067008 371.48884898 22.14107505 373.08844094 20.55343056 374.68996429 C18.33744496 376.92516427 16.11536879 379.15413757 13.8918457 381.38183594 C13.23978653 382.04265671 12.58772736 382.70347748 11.91590881 383.38432312 C7.25075177 388.03949871 3.32234376 391.71830092 -3.5625 391.9375 C-9.13399019 391.80252446 -11.70776132 390.00707202 -15.54296875 386.1171875 C-16.10628906 385.52164062 -16.66960937 384.92609375 -17.25 384.3125 C-18.136875 383.61125 -19.02375 382.91 -19.9375 382.1875 C-22.55919049 380.06180501 -24.88131046 377.70892528 -27.25 375.3125 C-28.43691119 374.11961139 -29.62419592 372.92709437 -30.81176758 371.73486328 C-31.46627396 371.07712921 -32.12078033 370.41939514 -32.79512024 369.74172974 C-35.76626854 366.75712794 -38.74012771 363.7752333 -41.71411133 360.79345703 C-43.27523677 359.22730041 -44.83546384 357.66024776 -46.39477539 356.09228516 C-48.6631205 353.811715 -50.93476453 351.53447456 -53.20703125 349.2578125 C-53.89376419 348.56591827 -54.58049713 347.87402405 -55.28804016 347.16116333 C-59.15940726 343.28935583 -63.14252314 339.62900272 -67.28666687 336.05221558 C-70.58115034 333.13296356 -73.65889444 330.00659181 -76.75 326.875 C-77.42998047 326.19123291 -78.10996094 325.50746582 -78.81054688 324.80297852 C-81.68225143 321.91512227 -84.54788438 319.02126925 -87.4140625 316.12792969 C-89.52392787 313.99984275 -91.63689645 311.87487083 -93.75 309.75 C-94.38357422 309.10812744 -95.01714844 308.46625488 -95.66992188 307.80493164 C-99.42665853 304.02799218 -103.31011429 300.47516753 -107.34146118 296.99395752 C-110.19237647 294.48224914 -112.87073877 291.8163688 -115.54296875 289.1171875 C-116.09688797 288.56185333 -116.65080719 288.00651917 -117.22151184 287.43435669 C-118.9625771 285.68777741 -120.70011 283.93773442 -122.4375 282.1875 C-123.61109203 281.00887945 -124.7849186 279.83049238 -125.95898438 278.65234375 C-128.11497675 276.4882538 -130.26960277 274.32282396 -132.42260742 272.15576172 C-132.89893616 271.67710663 -133.37526489 271.19845154 -133.86602783 270.70529175 C-135.19402773 269.36882896 -136.51788386 268.02825249 -137.84155273 266.6875 C-140.06005431 264.49980782 -142.33552518 262.43401811 -144.6796875 260.3828125 C-151.52035933 254.2619446 -157.92276448 247.71137017 -164.375 241.1875 C-174.09366524 231.28558896 -174.09366524 231.28558896 -184.36328125 221.96777344 C-188.31576579 218.50014337 -191.9802394 214.7254781 -195.6875 211 C-196.50154297 210.18982422 -197.31558594 209.37964844 -198.15429688 208.54492188 C-199.31348633 207.38379883 -199.31348633 207.38379883 -200.49609375 206.19921875 C-201.19404053 205.50014404 -201.8919873 204.80106934 -202.61108398 204.08081055 C-205.43328613 201.03579191 -205.41709461 198.66829696 -205.578125 194.578125 C-204.56914918 187.61138717 -199.57135874 183.20847859 -194.81690979 178.49845886 C-194.05354449 177.73041359 -193.29017918 176.96236831 -192.5036816 176.17104894 C-189.94517741 173.60058338 -187.37608906 171.04096859 -184.80688477 168.48120117 C-182.96996795 166.64021926 -181.13368997 164.79859975 -179.29800415 162.95639038 C-174.82963257 158.47468875 -170.35320031 154.00112334 -165.87381167 149.53043582 C-162.23424977 145.89765122 -158.5976292 142.26194643 -154.96308708 138.62413979 C-154.44565589 138.1062489 -153.9282247 137.58835801 -153.39511378 137.05477345 C-152.34397559 136.00267609 -151.29284414 134.950572 -150.24171936 133.89846126 C-140.38898976 124.03718034 -130.52709124 114.18511023 -120.66202741 104.33617041 C-112.19483712 95.88239101 -103.73555446 87.4207657 -95.28198242 78.95336914 C-85.46498111 69.12032116 -75.64314173 59.29214789 -65.81350559 49.4717291 C-64.765907 48.42508616 -63.71831467 47.37843695 -62.67072868 46.33178139 C-62.15528788 45.81680341 -61.63984707 45.30182542 -61.10878684 44.77124205 C-57.47403788 41.13908513 -53.84278535 37.50345501 -50.21286201 33.86647606 C-45.33051422 28.97484697 -40.44029185 24.09121131 -35.54462051 19.21291733 C-33.74567733 17.41795227 -31.94930323 15.62040835 -30.15564919 13.820158 C-27.71397317 11.3703294 -25.2633187 8.92985831 -22.81007385 6.49162292 C-21.73920944 5.41072027 -21.73920944 5.41072027 -20.64671141 4.30798119 C-19.6604478 3.33345245 -19.6604478 3.33345245 -18.65425968 2.33923626 C-18.08934317 1.7748068 -17.52442665 1.21037734 -16.94239146 0.62884396 C-12.1084833 -3.1309752 -5.16243796 -2.68049663 0 0 Z " fill="#FCFCFC" transform="translate(640.25,269.6875)"/>
<path d="M0 0 C7.44406853 5.84316864 13.99301956 12.89606078 20.625 19.625 C27.46635392 26.63194773 27.46635392 26.63194773 34.7109375 33.2109375 C42.24675418 39.6666775 49.04283911 46.99247608 56.01855469 54.0390625 C65.22047334 63.38398261 65.22047334 63.38398261 74.94726562 72.16992188 C80.11398259 76.77621473 84.88692055 81.827735 89.75 86.75 C91.97102858 88.99771905 94.19542571 91.24202673 96.421875 93.484375 C96.92297791 93.99377625 97.42408081 94.50317749 97.94036865 95.02801514 C99.99019508 97.09211454 101.9985343 98.99892678 104.34863281 100.71972656 C104.89358398 101.1422168 105.43853516 101.56470703 106 102 C106 102.66 106 103.32 106 104 C106.88048004 104.39201347 106.88048004 104.39201347 107.77874756 104.79194641 C110.13180327 106.07168272 111.66208484 107.42711638 113.54003906 109.32885742 C114.21464172 110.00683884 114.88924438 110.68482025 115.58428955 111.38334656 C116.6640506 112.48329704 116.6640506 112.48329704 117.765625 113.60546875 C118.51785339 114.36289871 119.27008179 115.12032867 120.04510498 115.90071106 C122.45153225 118.32494306 124.85119238 120.75572983 127.25 123.1875 C129.63533204 125.60059092 132.02215052 128.01216121 134.41204834 130.42073059 C135.89752375 131.91830564 137.38032038 133.41854445 138.85992432 134.92192078 C142.11286727 138.20577808 145.39255208 141.38901868 148.89941406 144.40161133 C153.81400508 148.63720589 158.34247835 153.23665606 162.90625 157.84375 C164.31862932 159.2619165 165.73101161 160.68008007 167.14356232 162.09807587 C170.09312024 165.06066445 173.03806312 168.02784021 175.98382568 170.99420166 C178.41877106 173.44581031 180.85474816 175.89637331 183.29333496 178.34436035 C185.11220613 180.17068429 186.92882652 181.99925361 188.74279785 183.83044434 C193.13420641 188.23923622 197.56832442 192.48148703 202.36022949 196.45471191 C206.63629855 200.48439688 208.66781933 205.64007416 209.23828125 211.41015625 C209.48607395 220.26548468 208.2027692 227.6768681 202.0625 234.359375 C199.14624539 237.3578941 196.1070788 240.20069788 193 243 C192.34 242.67 191.68 242.34 191 242 C193.42837151 239.01657215 195.73802253 236.24280839 198.5625 233.625 C204.76687303 226.94336751 205.47529421 221.00289273 205.7265625 211.9765625 C204.34805368 200.04507095 192.68278282 191.18969111 184.625 183.3125 C183.32204424 182.0210619 182.01995448 180.72874947 180.71875 179.43554688 C173.49842075 172.25535446 173.49842075 172.25535446 165.9296875 165.44921875 C159.116888 159.64325042 152.98810735 153.03923307 146.69970703 146.67919922 C138.08828212 137.96890732 138.08828212 137.96890732 128.99414062 129.77148438 C123.94753834 125.28836168 119.30175322 120.34888906 114.56347656 115.54296875 C113.14866287 114.10980594 111.73064302 112.67986733 110.3125 111.25 C109.48363281 110.40953125 108.65476562 109.5690625 107.80078125 108.703125 C105.62773221 106.60584476 103.43401906 104.62128448 101.15039062 102.65039062 C97.00747593 99.0561322 93.1336806 95.24495453 89.28125 91.34375 C88.22798523 90.2848053 88.22798523 90.2848053 87.15344238 89.20446777 C84.18616234 86.22102625 81.22494637 83.2315929 78.26318359 80.24267578 C76.08381535 78.04509421 73.90135053 75.85062062 71.71875 73.65625 C71.063302 72.99250366 70.407854 72.32875732 69.73254395 71.64489746 C65.94165898 67.83426956 62.02943355 64.24807311 57.96130371 60.7364502 C54.74338161 57.88744653 51.73618641 54.83962101 48.71875 51.78125 C48.06096558 51.11967896 47.40318115 50.45810791 46.72546387 49.77648926 C43.94933442 46.98421856 41.17928463 44.18594584 38.40869141 41.38818359 C36.3683292 39.32959102 34.32485669 37.27412097 32.28125 35.21875 C31.66954956 34.59875122 31.05784912 33.97875244 30.4276123 33.33996582 C26.67905391 29.5705694 22.79359919 26.03155492 18.77081299 22.55709839 C16.75698725 20.7863158 14.89474507 18.92174473 13.0703125 16.95703125 C12.41933594 16.27576172 11.76835938 15.59449219 11.09765625 14.89257812 C9.78036636 13.50355463 8.47304139 12.10501385 7.17578125 10.69726562 C1.45609832 4.76887632 -4.36471103 1.54680357 -12.609375 0.57421875 C-13.64578125 0.61160156 -14.6821875 0.64898437 -15.75 0.6875 C-16.79671875 0.71199219 -17.8434375 0.73648438 -18.921875 0.76171875 C-21.99529763 0.99963598 -24.96961501 1.44200995 -28 2 C-27.34 1.67 -26.68 1.34 -26 1 C-26.33 0.01 -26.66 -0.98 -27 -2 C-17.76909554 -5.88669662 -8.72841443 -4.49377832 0 0 Z " fill="#F0EFFD" transform="translate(647,251)"/>
<path d="M0 0 C0.99 0.495 0.99 0.495 2 1 C-2.48831411 10.73467348 -12.03156958 18.16354856 -19.5390625 25.63671875 C-20.7504134 26.84619987 -21.96154022 28.05590544 -23.17245483 29.26582336 C-26.34112717 32.43070378 -29.51278903 35.59257121 -32.68511963 38.75378418 C-35.90908214 41.96750159 -39.13020699 45.1840604 -42.3515625 48.40039062 C-47.55423018 53.59430578 -52.7585723 58.78653563 -57.96528625 63.97639465 C-60.21719278 66.22121932 -62.46609386 68.46873845 -64.70809937 70.72346497 C-66.83007752 72.83121673 -68.97898535 74.75648187 -71.3125 76.625 C-72.35857422 77.47964844 -72.35857422 77.47964844 -73.42578125 78.3515625 C-79.61906681 82.31752078 -85.5864969 83.56169418 -92.875 83.5 C-93.66366455 83.49427979 -94.4523291 83.48855957 -95.26489258 83.48266602 C-104.09163341 83.21282124 -109.82807704 80.32232395 -116.125 74.1875 C-117.09681299 73.137315 -118.06064993 72.07931945 -119 71 C-118.505 70.01 -118.505 70.01 -118 69 C-117.01 69.66 -116.02 70.32 -115 71 C-114.3709375 71.1546875 -113.741875 71.309375 -113.09375 71.46875 C-109.80447372 72.30334249 -107.12431749 74.13225134 -104.21875 75.84375 C-97.22510977 79.48832308 -88.70880386 78.77078295 -81.328125 76.65625 C-73.76989587 74.02149054 -69.07781773 68.94270791 -63.75 63.1875 C-61.89683344 61.23749262 -60.03356751 59.29736129 -58.171875 57.35546875 C-57.3684668 56.49590576 -56.56505859 55.63634277 -55.73730469 54.75073242 C-53.65335538 52.65656038 -51.57687148 50.74135019 -49.34082031 48.82324219 C-44.10221235 44.29305903 -39.25592178 39.38084327 -34.375 34.47265625 C-33.37774323 33.47352972 -32.38026198 32.4746272 -31.38256836 31.47593689 C-28.78294321 28.8725305 -26.18633769 26.2661333 -23.59039307 23.65905762 C-20.93060237 20.98895726 -18.2679066 18.32175723 -15.60546875 15.65429688 C-10.40083112 10.43899962 -5.1993866 5.22053284 0 0 Z " fill="#D2CDF8" transform="translate(533,646)"/>
<path d="M0 0 C0.67804687 0.68835938 1.35609375 1.37671875 2.0546875 2.0859375 C5.32647791 5.35772791 8.72768303 8.48470688 12.125 11.625 C17.73946375 16.83338403 23.19089537 22.15834302 28.57421875 27.60546875 C31.33685048 30.33251102 34.21321658 32.87304526 37.17578125 35.37890625 C39.05834978 37.05185258 40.72920932 38.83848057 42.4375 40.6875 C47.81458188 46.17557669 55.40895015 49.07833159 63.0625 49.25 C70.86629089 49.14680938 78.21103296 47.4154853 84 42 C84.66 42 85.32 42 86 42 C84.47661994 46.26546416 81.86637861 47.82076842 78 50 C69.61923722 53.8316717 61.24712122 54.27124108 52.4375 51.5625 C47.24142365 49.47518728 43.564454 46.39649891 39.58203125 42.51171875 C37.53618447 40.52158338 35.46835303 38.66401326 33.3046875 36.80859375 C28.4118348 32.55720131 23.87045162 27.97971829 19.3125 23.375 C18.48427734 22.54226563 17.65605469 21.70953125 16.80273438 20.8515625 C10.94714326 14.96315382 10.94714326 14.96315382 8.44018555 12.41381836 C5.5653257 9.50178596 2.5345606 6.90106283 -0.64453125 4.33203125 C-1.09183594 3.89246094 -1.53914062 3.45289063 -2 3 C-2 2.34 -2 1.68 -2 1 C-1.34 0.67 -0.68 0.34 0 0 Z " fill="#DDDBFA" transform="translate(552,652)"/>
<path d="M0 0 C-1.48653506 3.46629835 -3.45722351 5.69022036 -6.1328125 8.328125 C-7.34130859 9.52695312 -7.34130859 9.52695312 -8.57421875 10.75 C-9.41597656 11.575 -10.25773438 12.4 -11.125 13.25 C-11.97449219 14.09046875 -12.82398438 14.9309375 -13.69921875 15.796875 C-15.79504923 17.86915683 -17.89540713 19.93662393 -20 22 C-20.66 21.67 -21.32 21.34 -22 21 C-21.35933594 20.3709375 -20.71867188 19.741875 -20.05859375 19.09375 C-15.34862204 14.43291362 -10.76410416 9.74202922 -6.47265625 4.69140625 C-2.38799076 0 -2.38799076 0 0 0 Z " fill="#DDDDFC" transform="translate(796,536)"/>
<path d="M0 0 C3.42754467 0.58110671 5.04538661 1.68553624 7.453125 4.16015625 C8.071875 4.78857422 8.690625 5.41699219 9.328125 6.06445312 C9.96234375 6.72380859 10.5965625 7.38316406 11.25 8.0625 C11.8996875 8.72572266 12.549375 9.38894531 13.21875 10.07226562 C14.8194676 11.70829317 16.41276193 13.35090912 18 15 C17.34 15.66 16.68 16.32 16 17 C13.32932797 14.3581833 10.66414667 11.7108958 8 9.0625 C7.236875 8.30775391 6.47375 7.55300781 5.6875 6.77539062 C4.965625 6.05673828 4.24375 5.33808594 3.5 4.59765625 C2.8296875 3.93258057 2.159375 3.26750488 1.46875 2.58227539 C0 1 0 1 0 0 Z " fill="#F6F6FE" transform="translate(816,418)"/>
<path d="M0 0 C0.66 1.32 1.32 2.64 2 4 C-2.16704183 8.85743929 -6.41844996 13.53019508 -11 18 C-11.66 17.67 -12.32 17.34 -13 17 C-10.55000408 13.99000502 -8.18847369 11.17949875 -5.375 8.5 C-2.85124999 5.84342104 -1.47370467 3.33522637 0 0 Z " fill="#E6E5FC" transform="translate(851,476)"/>
<path d="M0 0 C-1.49835228 4.66154042 -4.88463591 5.86610751 -9 8 C-7.47364599 4.11473526 -4.49771687 0 0 0 Z " fill="#D9D8FB" transform="translate(638,694)"/>
<path d="M0 0 C0.61875 0.33 1.2375 0.66 1.875 1 C3.91018344 2.14193235 3.91018344 2.14193235 6 2 C6.144375 2.61875 6.28875 3.2375 6.4375 3.875 C6.93152225 6.03258322 6.93152225 6.03258322 8 8 C4.63820226 6.55922954 2.40843732 4.75249979 0 2 C0 1.34 0 0.68 0 0 Z " fill="#EBEAFD" transform="translate(414,715)"/>
<path d="M0 0 C1.98 1.65 3.96 3.3 6 5 C5.34 5.66 4.68 6.32 4 7 C2.35 5.02 0.7 3.04 -1 1 C-0.67 0.67 -0.34 0.34 0 0 Z " fill="#F9F8FE" transform="translate(782,383)"/>
</svg>
